<?xml version="1.0" standalone="no"?>
<!DOCTYPE svg PUBLIC "-//W3C//DTD SVG 20010904//EN"
 "http://www.w3.org/TR/2001/REC-SVG-20010904/DTD/svg10.dtd">
<svg version="1.0" xmlns="http://www.w3.org/2000/svg"
 width="205.000000pt" height="205.000000pt" viewBox="0 0 205.000000 205.000000"
 preserveAspectRatio="xMidYMid meet">
<metadata>
Created by potrace 1.14, written by Peter Selinger 2001-2017
</metadata>
<g transform="translate(0.000000,205.000000) scale(0.100000,-0.100000)"
fill="#000000" stroke="none">
<path d="M875 2040 c-230 -55 -397 -179 -508 -380 -42 -76 -61 -131 -77 -218
-13 -73 -12 -230 2 -280 5 -19 11 -42 13 -51 15 -71 76 -189 134 -261 100
-124 213 -201 371 -253 54 -18 89 -21 210 -22 126 0 154 3 214 23 202 68 341
182 439 362 65 118 89 220 86 364 -2 122 -25 215 -79 322 -45 88 -68 120 -145
197 -49 49 -175 137 -196 137 -6 0 -23 7 -37 15 -57 31 -139 47 -262 51 -69 2
-143 -1 -165 -6z m412 -675 c0 -8 -4 -12 -9 -9 -5 3 -6 10 -3 15 9 13 12 11
12 -6z m133 9 c0 -8 -19 -13 -24 -6 -3 5 1 9 9 9 8 0 15 -2 15 -3z m24 -42 c3
-5 -1 -9 -9 -9 -8 0 -12 4 -9 9 3 4 7 8 9 8 2 0 6 -4 9 -8z m59 -117 c-3 -9
-8 -14 -10 -11 -3 3 -2 9 2 15 9 16 15 13 8 -4z m102 -24 c3 -5 2 -12 -3 -15
-5 -3 -9 1 -9 9 0 17 3 19 12 6z m-521 -179 c3 -5 -1 -9 -9 -9 -8 0 -12 4 -9
9 3 4 7 8 9 8 2 0 6 -4 9 -8z m546 -22 c0 -5 -2 -10 -4 -10 -3 0 -8 5 -11 10
-3 6 -1 10 4 10 6 0 11 -4 11 -10z m-84 -36 c1 -9 0 -13 -4 -10 -3 4 -7 14 -8
22 -1 9 0 13 4 10 3 -4 7 -14 8 -22z m-80 -60 c1 -9 0 -13 -4 -10 -3 4 -7 14
-8 22 -1 9 0 13 4 10 3 -4 7 -14 8 -22z m-136 -4 c0 -5 -5 -10 -11 -10 -5 0
-7 5 -4 10 3 6 8 10 11 10 2 0 4 -4 4 -10z m97 -72 c2 -17 0 -19 -7 -8 -5 8
-6 18 -4 22 8 12 10 10 11 -14z m-142 -37 c3 -5 2 -12 -3 -15 -5 -3 -9 1 -9 9
0 17 3 19 12 6z m101 -27 c1 -9 0 -13 -4 -10 -3 4 -7 14 -8 22 -1 9 0 13 4 10
3 -4 7 -14 8 -22z m-211 -24 c-3 -5 -12 -10 -18 -10 -7 0 -6 4 3 10 19 12 23
12 15 0z m131 -16 c1 -9 0 -13 -4 -10 -3 4 -7 14 -8 22 -1 9 0 13 4 10 3 -4 7
-14 8 -22z"/>
<path d="M410 373 c-24 -10 -73 -53 -85 -77 -17 -31 -26 -65 -31 -113 -5 -36
-1 -47 20 -68 28 -28 52 -31 80 -10 17 13 21 12 32 -3 12 -16 13 -16 10 3 -2
10 3 39 11 64 15 51 8 61 -42 60 -25 0 -27 -2 -10 -8 11 -5 23 -7 28 -4 4 2 7
1 8 -4 0 -4 2 -16 4 -25 2 -10 -1 -18 -6 -18 -5 0 -9 -8 -9 -19 0 -24 -45 -54
-69 -46 -24 7 -41 47 -35 81 3 16 6 40 7 55 1 15 5 25 8 23 4 -2 12 10 19 26
14 33 64 80 85 80 21 0 27 -31 10 -56 -16 -25 -8 -33 13 -12 24 24 7 79 -22
77 -6 0 -18 -3 -26 -6z"/>
<path d="M552 318 c-12 -35 -22 -66 -23 -70 0 -4 -11 -36 -23 -71 -12 -35 -20
-69 -18 -75 7 -22 20 -12 28 20 4 18 9 35 10 38 0 3 5 20 9 38 4 17 10 32 14
32 3 0 7 11 7 24 3 44 36 116 53 116 25 -1 51 -25 51 -48 0 -37 -13 -54 -54
-73 -50 -22 -32 -25 22 -3 45 17 68 55 52 84 -15 28 -51 50 -80 50 -22 0 -28
-8 -48 -62z"/>
<path d="M740 353 c-22 -20 -32 -38 -33 -61 -2 -28 5 -37 48 -70 28 -21 51
-47 53 -57 4 -30 -19 -55 -55 -59 -43 -5 -68 22 -60 64 7 33 -7 41 -21 13 -26
-50 20 -98 83 -89 47 7 75 36 75 77 0 23 -10 36 -50 65 -49 35 -55 43 -50 74
3 24 42 60 65 60 32 0 36 -9 19 -48 -9 -23 -11 -39 -5 -45 13 -13 33 37 29 72
-5 39 -56 41 -98 4z"/>
<path d="M1005 355 c-26 -25 -32 -50 -15 -60 6 -3 10 3 10 13 0 11 9 30 20 43
19 23 19 23 20 3 0 -12 -4 -34 -9 -50 -39 -119 -62 -206 -57 -211 8 -8 30 48
57 146 13 46 24 80 26 75 1 -5 9 -54 17 -108 18 -121 38 -152 50 -78 4 18 8
44 11 60 5 28 37 142 50 177 7 18 6 18 -8 5 -9 -8 -27 -55 -42 -104 -22 -79
-42 -128 -34 -86 4 21 -10 129 -22 168 -13 39 -40 42 -74 7z"/>
<path d="M1678 363 c-21 -23 -78 -136 -78 -154 0 -24 -39 -79 -56 -79 -11 0
-14 6 -9 21 4 12 8 27 9 33 1 6 5 17 10 25 12 19 -17 40 -49 33 -29 -5 -72
-52 -81 -89 -9 -36 20 -59 50 -39 16 10 25 10 38 2 13 -8 24 -6 47 7 25 15 30
15 35 2 12 -32 57 -12 81 35 4 8 -4 2 -18 -14 -23 -28 -25 -29 -34 -10 -13 24
-8 39 28 85 34 44 68 115 65 137 -4 23 -20 25 -38 5z m4 -65 c-11 -24 -27 -52
-36 -63 -15 -19 -16 -19 -6 8 12 34 53 107 58 102 2 -2 -5 -23 -16 -47z m-142
-81 c0 -8 -9 -22 -20 -32 -11 -10 -22 -26 -25 -35 -7 -23 -45 -34 -45 -13 0
17 17 52 38 76 18 20 52 23 52 4z"/>
<path d="M525 360 c-3 -5 -2 -10 4 -10 5 0 13 5 16 10 3 6 2 10 -4 10 -5 0
-13 -4 -16 -10z"/>
<path d="M1306 243 c-7 -23 -16 -69 -22 -107 -2 -16 -9 -45 -16 -63 -9 -24 -9
-36 -1 -44 8 -8 14 -1 22 27 6 22 11 44 11 50 0 6 12 9 28 6 34 -5 76 27 91
68 9 26 7 34 -10 51 -19 19 -22 19 -44 5 -30 -20 -35 -20 -35 -2 0 22 -18 29
-24 9z m89 -33 c8 -13 -22 -67 -44 -80 -30 -16 -41 -12 -37 13 3 12 5 25 5 30
1 4 10 16 21 27 22 22 45 26 55 10z"/>
<path d="M1201 219 c-17 -17 -31 -34 -32 -37 -5 -45 -3 -55 14 -67 13 -9 28
-11 50 -4 31 9 60 29 41 29 -5 0 -15 -5 -21 -11 -15 -15 -57 -7 -61 12 -2 11
6 19 23 23 33 8 65 41 65 66 0 31 -43 25 -79 -11z m48 -15 c-18 -22 -49 -37
-49 -24 0 18 53 66 58 52 2 -7 -2 -20 -9 -28z"/>
</g>
</svg>
